<svg width="566" height="400" viewBox="0 0 566 400" fill="none" xmlns="http://www.w3.org/2000/svg">
<g clip-path="url(#clip0_1002_1179)">
<path opacity="0.1" d="M447.226 343.244C511.2 343.244 563.062 333.164 563.062 320.73C563.062 308.296 511.2 298.216 447.226 298.216C383.252 298.216 331.39 308.296 331.39 320.73C331.39 333.164 383.252 343.244 447.226 343.244Z" fill="#9D4EDD"/>
<g opacity="0.5">
<path d="M348.007 56.7561C346.445 57.2 344.533 58.3564 343.59 61.5187C341.743 67.7171 346.034 71.9316 344.62 78.3932C344.228 80.1072 343.481 81.7201 342.428 83.1283C340.702 85.4685 338.827 86.5755 337.008 88.2142C334.7 90.3077 333.046 93.0235 332.245 96.0349C331.368 99.3586 331.295 102.844 332.032 106.201C332.678 109.007 333.78 111.051 334.744 113.326C335.944 116.227 336.881 119.229 337.545 122.297C337.91 123.792 338.115 125.32 338.159 126.857C338.132 128.9 337.948 130.937 337.611 132.952L334.986 151.267C334.587 153.662 334.347 156.081 334.268 158.507C334.302 160.939 334.583 163.361 335.106 165.736C336.027 170.581 337.019 175.601 339.129 178.166C341.239 180.731 344.834 179.81 347.043 174.62C349.142 169.654 349.191 163.029 351.043 157.723C353.965 149.366 359.768 148.242 362.991 140.268C366.082 132.595 365.134 123.235 366.701 114.51C367.797 108.256 370.214 102.557 371.634 96.3802C373.672 87.4853 373.47 78.2507 371.842 71.411C370.604 65.7912 367.926 60.5899 364.071 56.3177C362.706 54.8105 361.243 53.4678 359.527 53.3308C357.702 53.1883 356.107 55.4847 354.304 56.1752C352.222 56.9918 350.128 56.1533 348.007 56.7561Z" fill="#9D4EDD"/>
<path d="M357.889 53.7966C357.889 53.7966 354.798 132.902 341.798 179.547" stroke="#535461" stroke-width="2" stroke-miterlimit="10"/>
<path d="M343.513 61.8914C343.513 61.8914 357.406 74.5404 354.77 98.6107" stroke="#535461" stroke-width="2" stroke-miterlimit="10"/>
<path d="M331.856 97.8873C331.856 97.8873 354.661 102.474 352.967 116.115" stroke="#535461" stroke-width="2" stroke-miterlimit="10"/>
<path d="M371.881 71.2466C371.881 71.2466 362.651 79.3248 354.431 102.206" stroke="#535461" stroke-width="2" stroke-miterlimit="10"/>
<path d="M362.865 140.4C362.865 140.4 356.568 145.332 351.515 128.063" stroke="#535461" stroke-width="2" stroke-miterlimit="10"/>
<path d="M335.692 150.489C335.692 150.489 348.533 148.812 349.717 140.772" stroke="#535461" stroke-width="2" stroke-miterlimit="10"/>
</g>
<path d="M379.049 3.69936C375.87 4.17068 372.045 5.64494 370.472 10.1883C367.386 19.0996 376.763 25.8461 374.604 35.1574C373.96 37.7199 372.603 40.0476 370.691 41.8711C367.403 45.11 363.643 46.524 360.081 48.7217C356.518 50.9194 352.819 54.3776 351.147 59.6827C349.542 64.785 350.238 70.419 351.909 74.628C353.581 78.8371 356.107 81.9774 358.365 85.4411C361.109 89.7044 363.403 94.241 365.21 98.9779C366.122 101.137 366.734 103.411 367.03 105.735C367.32 108.585 366.953 111.649 366.586 114.647L363.325 141.359C362.892 144.91 362.454 148.516 362.7 151.936C362.98 155.876 364.147 159.318 365.298 162.678C367.775 169.923 370.428 177.475 375.103 181.465C379.778 185.455 387.11 184.6 391.062 177.179C394.822 170.115 394.131 160.365 397.337 152.775C402.39 140.811 414.272 139.841 419.988 128.485C425.469 117.59 422.405 103.653 424.608 90.9928C426.186 81.9226 430.461 73.8114 432.653 64.8837C435.816 52.021 434.298 38.4019 430.121 28.1643C425.945 17.9268 419.341 10.6267 412.255 5.02016C409.252 2.63615 406.068 0.482308 402.5 0.0877114C398.707 -0.334287 395.677 2.85536 392.032 3.661C387.79 4.54336 383.362 3.05814 379.049 3.69936Z" fill="#9D4EDD"/>
<path d="M399.151 0.509705C399.151 0.509705 402.144 116.636 380.759 183.789" stroke="#535461" stroke-width="2" stroke-miterlimit="10"/>
<path d="M370.351 10.7473C370.351 10.7473 400.603 31.0251 398.011 66.188" stroke="#535461" stroke-width="2" stroke-miterlimit="10"/>
<path d="M350.495 62.3572C350.495 62.3572 398.241 71.8165 396.356 91.6998" stroke="#535461" stroke-width="2" stroke-miterlimit="10"/>
<path d="M430.176 27.8683C430.176 27.8683 412.03 38.6704 397.737 71.389" stroke="#535461" stroke-width="2" stroke-miterlimit="10"/>
<path d="M419.703 128.638C419.703 128.638 407.262 135.215 394.75 109.122" stroke="#535461" stroke-width="2" stroke-miterlimit="10"/>
<path d="M364.662 140.263C364.662 140.263 391.04 139.314 392.541 127.614" stroke="#535461" stroke-width="2" stroke-miterlimit="10"/>
<path d="M37.6081 317.096C37.6081 317.096 42.2008 323.125 35.4871 332.168C28.7735 341.211 23.2272 348.894 25.4797 354.55C25.4797 354.55 35.6077 337.709 43.8504 337.473C52.0931 337.237 46.6783 327.224 37.6081 317.096Z" fill="#9D4EDD"/>
<path opacity="0.1" d="M37.6078 317.096C38.0176 317.676 38.3424 318.311 38.5724 318.982C46.6178 328.43 50.898 337.248 43.1705 337.473C35.9692 337.681 27.3319 350.555 25.2603 353.81C25.3286 354.061 25.4109 354.308 25.5069 354.55C25.5069 354.55 35.6348 337.709 43.8775 337.473C52.1202 337.237 46.6781 327.224 37.6078 317.096Z" fill="#111111"/>
<path d="M46.1464 324.753C46.1464 326.868 45.9107 328.589 45.5983 328.589C45.286 328.589 45.0503 326.874 45.0503 324.753C45.0503 322.632 45.3462 323.657 45.6367 323.657C45.9272 323.657 46.1464 322.637 46.1464 324.753Z" fill="#FFD037"/>
<path d="M49.0785 327.274C47.2206 328.288 45.6039 328.918 45.4669 328.638C45.3298 328.359 46.7164 327.35 48.5743 326.342C50.4322 325.334 49.6978 326.068 49.8403 326.342C49.9828 326.616 50.9309 326.26 49.0785 327.274Z" fill="#FFD037"/>
<path d="M13.3623 317.096C13.3623 317.096 8.76962 323.125 15.4832 332.168C22.1969 341.211 27.7322 348.889 25.4906 354.545C25.4906 354.545 15.3627 337.703 7.11999 337.467C-1.12269 337.232 4.28109 327.224 13.3623 317.096Z" fill="#9D4EDD"/>
<path opacity="0.1" d="M13.3623 317.096C12.9621 317.677 12.6465 318.312 12.4251 318.982C4.37974 328.43 0.0994625 337.248 7.82697 337.473C15.0284 337.681 23.6656 350.555 25.7373 353.81C25.6689 354.061 25.5866 354.308 25.4906 354.55C25.4906 354.55 15.3627 337.709 7.11999 337.473C-1.12269 337.237 4.28109 327.224 13.3623 317.096Z" fill="#111111"/>
<path d="M4.8125 324.753C4.8125 326.868 5.04816 328.589 5.36055 328.589C5.67294 328.589 5.9086 326.874 5.9086 324.753C5.9086 322.632 5.61265 323.657 5.32219 323.657C5.03172 323.657 4.8125 322.637 4.8125 324.753Z" fill="#FFD037"/>
<path d="M1.88057 327.274C3.73846 328.288 5.35521 328.918 5.49222 328.638C5.62923 328.359 4.24267 327.35 2.38478 326.342C0.526887 325.334 1.26128 326.068 1.11878 326.342C0.976289 326.616 0.0281619 326.26 1.88057 327.274Z" fill="#FFD037"/>
<path d="M6.27588 353.761C6.27588 353.761 19.1167 353.366 22.9859 350.61C26.8552 347.853 42.7158 344.581 43.6968 348.966C44.6778 353.35 62.9936 370.948 48.4977 371.063C34.0017 371.178 14.8145 368.805 10.9507 366.454C7.08699 364.103 6.27588 353.761 6.27588 353.761Z" fill="#A8A8A8"/>
<path opacity="0.2" d="M48.7553 369.539C34.2593 369.654 15.0721 367.281 11.2083 364.93C8.2653 363.138 7.09247 356.71 6.70336 353.745H6.27588C6.27588 353.745 7.08699 364.103 10.9507 366.454C14.8145 368.805 34.0017 371.184 48.4977 371.063C52.6848 371.03 54.1262 369.539 54.0494 367.336C53.4685 368.684 51.8737 369.517 48.7553 369.539Z" fill="#111111"/>
<path d="M539.134 314.603C540.138 313.784 540.87 312.679 541.233 311.435C541.507 310.175 540.97 308.667 539.764 308.207C538.416 307.692 536.975 308.624 535.884 309.572C534.793 310.52 533.538 311.594 532.108 311.391C532.843 310.725 533.393 309.879 533.704 308.937C534.016 307.995 534.077 306.988 533.884 306.015C533.822 305.611 533.651 305.233 533.39 304.919C532.64 304.119 531.286 304.464 530.387 305.094C527.537 307.1 526.742 310.969 526.726 314.455C526.441 313.2 526.682 311.89 526.671 310.618C526.66 309.347 526.31 307.878 525.224 307.21C524.552 306.848 523.796 306.669 523.032 306.689C521.75 306.64 520.325 306.771 519.448 307.708C518.352 308.87 518.642 310.827 519.59 312.093C520.539 313.359 521.974 314.175 523.301 315.063C524.364 315.695 525.27 316.559 525.953 317.59C526.034 317.733 526.1 317.883 526.151 318.039H534.18C535.979 317.122 537.645 315.966 539.134 314.603Z" fill="#9D4EDD"/>
<path opacity="0.1" d="M81.1668 263.24C98.6058 285.414 91.8319 317.809 80.7503 343.748C77.04 352.435 72.8419 361.626 74.4093 370.937C76.322 382.325 86.4664 390.667 97.1644 395.051C116.62 403.097 139.912 401.178 157.784 390.058C173.234 380.446 184.299 364.815 200.012 355.641C226.318 340.295 259.782 346.088 288.335 356.66C308.536 364.141 330.623 373.874 350.698 366.054C364.821 360.573 374.587 347.162 379.909 332.968C382.479 326.112 384.343 318.719 389.226 313.238C392.141 310.01 395.945 307.714 399.847 305.785C435.47 288.132 480.41 297.564 514.982 278.01C538.334 264.791 553.285 239.849 559.922 213.844C566.559 187.839 565.769 160.568 564.087 133.79C562.892 114.756 560.749 94.44 548.588 79.7468C535.725 64.2096 513.644 58.4276 493.69 61.3816C473.735 64.3356 455.639 74.913 439.745 87.3099C419.856 102.803 401.414 122.1 376.993 128.381C360.366 132.656 342.872 130.315 325.718 129.51C297.044 128.156 268.364 131.154 239.849 134.442C212.551 137.599 185.044 141.074 159.05 149.952C140.647 156.238 125.893 167.643 108.514 175.612C97.1863 180.807 84.8332 182.243 74.1134 188.858C60.8999 197.008 48.7935 211.186 52.1914 227.77C55.381 243.559 71.9047 251.473 81.1668 263.24Z" fill="#9D4EDD"/>
<path opacity="0.1" d="M303.467 263.229C432.914 263.229 537.852 253.149 537.852 240.715C537.852 228.281 432.914 218.201 303.467 218.201C174.02 218.201 69.0825 228.281 69.0825 240.715C69.0825 253.149 174.02 263.229 303.467 263.229Z" fill="#9D4EDD"/>
<path opacity="0.1" d="M123.329 393.116C187.303 393.116 239.164 383.037 239.164 370.603C239.164 358.168 187.303 348.089 123.329 348.089C59.3542 348.089 7.49268 358.168 7.49268 370.603C7.49268 383.037 59.3542 393.116 123.329 393.116Z" fill="#9D4EDD"/>
<path d="M241.74 233.694L239.904 236.363C239.904 236.363 241.905 239.032 242.096 239.366C242.288 239.701 247.933 239.202 247.933 239.202L248.432 237.202L247.599 234.867L241.74 233.694Z" fill="#E6E6F0"/>
<path d="M180.013 232.193L176.341 232.856L178.676 237.366L181.181 238.698L183.515 240.364L184.184 238.533L182.512 235.026L180.013 232.193Z" fill="#FDC2CC"/>
<path d="M240.074 188.814C240.074 188.814 259.596 193.484 263.262 198.679C263.262 198.679 266.6 201.518 263.262 206.686C259.925 211.854 255.255 223.539 255.255 223.539C255.255 223.539 251.918 234.883 250.586 235.716C249.254 236.549 241.576 237.218 240.907 234.072C240.907 234.072 245.242 227.233 245.242 224.059C245.242 220.886 252.416 205.875 252.416 205.875C252.416 205.875 236.068 204.039 230.894 205.206C225.721 206.374 233.234 186.978 240.074 188.814Z" fill="#565171"/>
<path opacity="0.1" d="M240.074 188.814C240.074 188.814 259.596 193.484 263.262 198.679C263.262 198.679 266.6 201.518 263.262 206.686C259.925 211.854 255.255 223.539 255.255 223.539C255.255 223.539 251.918 234.883 250.586 235.716C249.254 236.549 241.576 237.218 240.907 234.072C240.907 234.072 245.242 227.233 245.242 224.059C245.242 220.886 252.416 205.875 252.416 205.875C252.416 205.875 236.068 204.039 230.894 205.206C225.721 206.374 233.234 186.978 240.074 188.814Z" fill="#111111"/>
<path d="M236.068 193.319C236.029 194.289 235.925 195.38 235.777 196.553C234.709 205.048 231.228 217.68 231.228 217.68C231.228 217.68 227.726 225.188 226.723 230.028C225.721 234.867 218.881 236.056 218.881 236.056C218.881 236.056 200.192 238.248 196.356 237.393C192.52 236.538 186.491 239.898 183.51 239.394C180.528 238.89 178.67 231.886 178.67 231.886C183.845 231.916 188.966 230.836 193.687 228.718C201.36 225.216 212.376 226.882 212.376 226.882C213.197 226.643 213.961 226.239 214.621 225.694C215.281 225.15 215.822 224.476 216.212 223.714C217.379 221.21 217.379 206.029 217.045 205.026C214.853 198.449 215.034 194.229 215.664 191.768C215.875 190.693 216.349 189.688 217.045 188.842L236.068 193.319Z" fill="#565171"/>
<path opacity="0.1" d="M236.068 193.319C236.03 194.289 235.926 195.38 235.778 196.553C234.101 196.684 229.398 196.81 225.913 194.656C222.624 192.64 217.84 191.955 215.686 191.741C215.897 190.666 216.372 189.66 217.067 188.814L236.068 193.319Z" fill="#111111"/>
<path d="M238.375 191.231C237.597 193.423 236.402 195.994 236.402 195.994C236.402 195.994 230.231 196.827 225.891 194.158C221.55 191.489 214.546 191.154 214.546 191.154C215.68 190.458 216.448 188.343 216.924 186.491C217.191 185.443 217.399 184.382 217.549 183.312C217.549 183.312 238.068 187.483 238.923 188.151C239.241 188.414 238.901 189.741 238.375 191.231Z" fill="#E6E6F0"/>
<path d="M274.941 120.911L250.054 135.933L247.583 137.424V130.085L249.298 129.263L270.272 119.239C270.272 119.239 271.275 101.055 273.944 103.894C276.613 106.733 274.941 120.911 274.941 120.911Z" fill="#FDC2CC"/>
<path opacity="0.1" d="M250.054 135.933L247.583 137.424V130.085L249.298 129.263C249.411 131.5 249.664 133.727 250.054 135.933Z" fill="#111111"/>
<path d="M230.9 138.618L248.75 128.277C248.75 128.277 249.084 138.29 251.085 139.786C251.085 139.786 243.746 141.978 240.907 146.625L230.9 138.618Z" fill="#B45181"/>
<path opacity="0.1" d="M230.9 138.618L248.75 128.277C248.75 128.277 249.084 138.29 251.085 139.786C251.085 139.786 243.746 141.978 240.907 146.625L230.9 138.618Z" fill="#111111"/>
<path d="M274.782 147.437C274.782 147.437 266.293 151.136 260.67 152.495C259.404 152.877 258.081 153.029 256.762 152.944C252.926 152.276 257.765 147.464 257.765 147.464L259.782 147.152L270.611 145.464C270.611 145.464 271.779 128.781 273.779 130.118C275.779 131.455 274.782 147.437 274.782 147.437Z" fill="#FDC2CC"/>
<path d="M238.907 132.42C238.907 132.42 231.733 137.758 234.402 144.433C237.071 151.108 220.553 140.427 220.553 140.427C220.553 140.427 225.891 132.42 227.058 126.413C228.225 120.407 238.907 132.42 238.907 132.42Z" fill="#FDC2CC"/>
<path opacity="0.1" d="M238.375 191.231C235.272 190.063 232.029 189.307 228.729 188.984C223.906 188.436 219.489 187.51 216.93 186.491C217.196 185.443 217.404 184.382 217.554 183.312C217.554 183.312 238.073 187.483 238.928 188.151C239.241 188.414 238.901 189.741 238.375 191.231Z" fill="#111111"/>
<path opacity="0.1" d="M260.664 152.495C259.399 152.877 258.076 153.029 256.757 152.944C252.92 152.276 257.76 147.464 257.76 147.464L259.777 147.151C260.621 148.45 261.481 150.478 260.664 152.495Z" fill="#111111"/>
<path d="M227.228 135.423C227.228 135.423 220.723 135.259 218.388 137.928C216.053 140.597 216.552 147.793 216.552 147.793C216.552 147.793 216.064 162.201 219.72 170.263C219.84 170.523 219.854 170.82 219.758 171.09C219.72 171.189 219.72 171.129 219.72 171.129C219.72 171.129 217.385 181.64 215.05 183.476C212.716 185.312 220.054 187.483 228.752 188.48C237.449 189.477 240.929 191.982 240.929 191.982C240.929 191.982 242.431 190.338 242.573 186.644C242.716 182.95 240.255 156.112 240.255 156.112C240.255 156.112 249.43 158.447 254.937 155.613C254.937 155.613 257.442 156.951 259.777 153.279C262.111 149.607 258.133 145.606 258.133 145.606C258.133 145.606 254.461 149.278 244.283 144.439C234.106 139.599 230.39 135.259 227.228 135.423Z" fill="#B45181"/>
<path d="M177.344 232.527H175.344V235.366L177.344 239.871C177.344 239.871 180.013 240.369 180.183 240.369C180.353 240.369 182.518 239.871 182.518 239.871L183.186 238.703C183.186 238.703 175.842 235.859 177.344 232.527Z" fill="#E6E6F0"/>
<path d="M240.074 235.196L237.071 241.871L249.753 247.9L259.766 248.234C259.766 248.234 260.599 245.899 257.261 244.732L254.592 244.233C254.592 244.233 251.09 237.892 250.756 234.916C250.756 234.916 247.418 235.585 246.919 238.084C246.914 238.029 242.244 240.364 240.074 235.196Z" fill="#B45181"/>
<path d="M175.843 231.858L174.823 232.691L170.34 236.363L180.682 250.064C180.682 250.064 186.519 252.569 189.193 250.064C189.193 250.064 190.837 248.42 187.193 247.061C187.193 247.061 184.354 247.56 184.354 244.726C184.354 241.893 185.023 238.89 185.998 238.221C185.998 238.221 183.494 237.388 182.83 238.057C182.32 238.619 181.872 239.234 181.493 239.893C181.493 239.893 175.508 237.53 175.843 231.858Z" fill="#B45181"/>
<path opacity="0.1" d="M226.729 126.748C226.56 127.594 226.336 128.429 226.061 129.247C226.927 131.331 228.572 132.996 230.646 133.887C232.721 134.779 235.061 134.826 237.17 134.02C237.609 133.566 238.08 133.143 238.578 132.754C238.578 132.754 227.897 120.741 226.729 126.748Z" fill="#111111"/>
<path opacity="0.1" d="M225.808 149.031C225.808 149.031 230.982 155.871 238.49 156.041L225.808 149.031Z" fill="#111111"/>
<g opacity="0.1">
<path d="M256.729 155.728C256.624 155.699 256.521 155.661 256.422 155.613C256.262 155.697 256.097 155.776 255.929 155.849C256.2 155.844 256.469 155.803 256.729 155.728Z" fill="#111111"/>
<path d="M258.505 146.291C258.323 146.058 258.13 145.835 257.924 145.622C257.924 145.622 256.828 146.719 254.121 146.927C255.612 147.075 257.117 146.857 258.505 146.291Z" fill="#111111"/>
<path d="M241.74 156.112L241.773 156.468C243.974 156.876 246.21 157.06 248.448 157.016C246.188 156.934 243.942 156.631 241.74 156.112Z" fill="#111111"/>
<path d="M230.231 188.491C221.556 187.488 214.217 185.323 216.53 183.487C218.843 181.651 221.199 171.14 221.199 171.14C221.199 171.14 221.199 171.2 221.238 171.101C221.334 170.831 221.32 170.534 221.199 170.274C217.544 162.19 218.032 147.804 218.032 147.804C218.032 147.804 217.533 140.63 219.868 137.939C221.605 135.949 225.655 135.538 227.612 135.456C227.429 135.442 227.246 135.442 227.064 135.456C227.064 135.456 220.558 135.292 218.224 137.961C215.889 140.63 216.388 147.826 216.388 147.826C216.388 147.826 215.9 162.234 219.555 170.296C219.676 170.556 219.69 170.853 219.594 171.123C219.555 171.222 219.555 171.162 219.555 171.162C219.555 171.162 217.237 181.64 214.88 183.476C212.524 185.312 219.884 187.483 228.582 188.48C237.279 189.477 240.759 191.982 240.759 191.982C240.934 191.773 241.088 191.547 241.22 191.308C239.526 190.491 236.041 189.149 230.231 188.491Z" fill="#111111"/>
</g>
<path d="M234.402 134.256C239.193 134.256 243.077 130.372 243.077 125.58C243.077 120.789 239.193 116.905 234.402 116.905C229.61 116.905 225.726 120.789 225.726 125.58C225.726 130.372 229.61 134.256 234.402 134.256Z" fill="#FDC2CC"/>
<path opacity="0.1" d="M246.749 121.7C246.031 123.498 243.889 124.177 242.009 124.643C239.323 125.301 236.43 125.947 233.859 124.928C233.526 124.741 233.142 124.666 232.763 124.714C232.458 124.837 232.203 125.059 232.04 125.345C229.206 129.378 229.667 134.755 228.932 139.632C228.702 141.15 228.313 142.718 227.288 143.852C225.293 146.044 221.528 145.962 219.692 148.291C218.481 149.826 218.47 151.958 218.481 153.914C218.481 156.001 218.463 158.089 218.426 160.179C218.393 161.549 218.327 162.968 217.708 164.185C216.656 166.246 214.31 167.227 212.145 168.021C210.797 168.525 209.405 169.035 207.958 168.898C206.512 168.761 205.065 167.802 204.878 166.355C204.621 164.393 206.643 163.023 208.035 161.609C210.26 159.357 211.175 156.079 211.258 152.912C211.336 151.632 211.149 150.35 210.71 149.146C210.2 147.902 209.29 146.856 208.742 145.628C207.054 141.846 209.137 137.473 211.63 134.163C214.124 130.853 217.188 127.624 217.719 123.52C217.766 122.631 217.892 121.749 218.097 120.883C218.481 119.689 219.391 116.389 220.394 115.633C221.999 114.424 223.884 113.639 225.874 113.353C227.414 113.129 228.987 113.211 230.516 112.915C232.303 112.57 233.963 111.72 235.75 111.402C239.614 110.717 243.806 115.206 245.5 118.746C245.966 119.831 247.188 120.598 246.749 121.7Z" fill="#111111"/>
<path d="M246.749 121.366C246.031 123.163 243.889 123.843 242.009 124.309C239.323 124.966 236.43 125.613 233.859 124.594C233.526 124.407 233.142 124.332 232.763 124.38C232.458 124.502 232.203 124.725 232.04 125.01C229.206 129.044 229.667 134.42 228.932 139.298C228.702 140.816 228.313 142.383 227.288 143.518C225.293 145.71 221.528 145.628 219.692 147.957C218.481 149.492 218.47 151.624 218.481 153.58C218.481 155.666 218.463 157.754 218.426 159.844C218.393 161.214 218.327 162.634 217.708 163.851C216.656 165.911 214.31 166.892 212.145 167.687C210.797 168.191 209.405 168.701 207.958 168.564C206.512 168.427 205.065 167.468 204.878 166.021C204.621 164.059 206.643 162.689 208.035 161.275C210.26 159.022 211.175 155.745 211.258 152.577C211.336 151.298 211.149 150.016 210.71 148.812C210.2 147.568 209.29 146.521 208.742 145.294C207.054 141.512 209.137 137.139 211.63 133.828C214.124 130.518 217.188 127.29 217.719 123.185C217.766 122.297 217.892 121.415 218.097 120.549C218.481 119.354 219.391 116.055 220.394 115.299C221.999 114.089 223.884 113.305 225.874 113.019C227.414 112.794 228.987 112.876 230.516 112.58C232.303 112.235 233.963 111.386 235.75 111.068C239.614 110.383 243.806 114.871 245.5 118.412C245.966 119.497 247.188 120.264 246.749 121.366Z" fill="#F569BC"/>
<path d="M274.782 104.689H419.013V248.908H274.782V104.689Z" fill="#F7DF1E"/>
<path d="M312.713 225.21L323.751 218.53C325.883 222.306 327.817 225.501 332.465 225.501C336.92 225.501 339.726 223.758 339.726 216.984V170.899H353.28V217.17C353.28 231.206 345.059 237.596 333.046 237.596C322.205 237.596 315.913 231.979 312.718 225.205M360.64 223.752L371.672 217.362C374.577 222.108 378.353 225.583 385.034 225.583C390.651 225.583 394.23 222.777 394.23 218.902C394.23 214.255 390.552 212.611 384.365 209.898L380.978 208.445C371.201 204.286 364.712 199.057 364.712 188.02C364.712 177.853 372.456 170.109 384.557 170.109C393.172 170.109 399.354 173.113 403.821 180.95L393.271 187.729C390.947 183.564 388.432 181.92 384.557 181.92C380.589 181.92 378.068 184.435 378.068 187.729C378.068 191.796 380.583 193.44 386.393 195.95L389.78 197.402C401.289 202.335 407.789 207.371 407.789 218.699C407.789 230.899 398.203 237.58 385.319 237.58C372.713 237.58 364.602 231.551 360.656 223.736" fill="#111111"/>
<path d="M482.279 328.945C482.279 328.945 476.651 329.34 473.176 323.311C472.497 322.097 471.695 320.957 470.781 319.908C469.66 318.069 469.077 315.951 469.099 313.797C469.291 309.331 464.632 284.866 464.632 284.866C464.632 284.866 465.213 275.549 460.555 269.723C457.486 265.887 453.074 254.926 450.416 247.845C450.594 248.004 450.808 248.117 451.04 248.174L450.931 247.565H451.04L449.665 240.008C447.662 237.705 445.974 235.147 444.645 232.401L444.957 232.335L449.078 231.469C449.078 231.469 455.776 221.949 456.203 217.269H456.751H457.524C463.723 217.235 469.919 217.559 476.081 218.239C476.081 218.212 476.037 218.091 475.982 217.899C475.721 216.957 475.52 216 475.379 215.033H475.763L479.599 214.781C479.599 214.781 492.802 200.027 487.946 197.309C483.09 194.591 478.043 209.542 478.043 209.542L476.399 209.837L475.955 209.92C475.999 209.854 476.043 209.794 476.092 209.733C476.141 209.673 454.542 208.769 451.216 203.518C451.216 203.518 441.702 195.944 441.313 190.913C441.243 189.87 440.886 188.865 440.283 188.011C439.68 187.156 438.853 186.484 437.893 186.069C436.717 185.507 435.415 185.264 434.117 185.362L429.661 185.668L429.973 186.216H429.847C429.568 185.576 429.333 184.917 429.146 184.244H429.239C429.206 184.107 429.179 183.969 429.151 183.832C430.517 183.51 431.804 182.918 432.936 182.089C434.068 181.261 435.023 180.213 435.743 179.009C436.463 177.805 436.934 176.469 437.128 175.08C437.322 173.69 437.236 172.276 436.873 170.92C437.309 170.976 437.751 170.963 438.183 170.882C439.827 170.548 440.984 168.882 441.028 167.216C441.028 167.106 441.028 166.996 441.028 166.892C441.028 166.892 441.028 166.848 441.028 166.826C441.011 165.989 440.808 165.166 440.434 164.417C440.059 163.668 439.523 163.012 438.863 162.497C437.975 161.757 436.912 161.231 436.123 160.409C435.163 159.428 434.637 158.112 433.892 156.956C432.643 155.043 430.792 153.602 428.631 152.862C427.025 152.314 425.052 152.259 423.819 153.41C423.183 154.008 422.816 154.873 422.103 155.378C421.079 156.112 419.686 155.893 418.431 156.041C417.295 156.216 416.219 156.668 415.299 157.357C414.378 158.046 413.641 158.951 413.154 159.992C412.538 161.296 412.242 162.727 412.288 164.168C412.274 165.157 412.392 166.143 412.639 167.1C412.88 168.054 413.236 168.975 413.499 169.928C414.047 171.901 414.173 173.979 414.803 175.924C415.227 177.368 416.072 178.653 417.231 179.612L417.045 180.413C416.924 180.413 413.899 181.087 411.811 185.652C410.167 189.253 404.571 192.968 402.111 194.47C401.652 194.751 401.253 195.121 400.939 195.557C400.625 195.994 400.401 196.489 400.28 197.013C400.044 198.072 399.939 199.156 399.968 200.241C399.924 202.581 400.412 205.82 402.291 209.925C406.561 219.242 409.668 223.319 409.668 223.319C409.668 223.319 409.904 226.175 409.92 229.184C409.92 231.425 409.756 233.656 409.279 234.774C408.873 235.716 408.731 238.122 408.764 240.874C408.764 246.146 409.279 253.024 409.279 253.024C409.279 253.024 410.764 253.309 413.061 253.643L414.491 278.81C414.671 281.857 413.692 284.86 411.751 287.217C410.747 288.456 409.589 289.561 408.303 290.505C404.226 293.415 395.49 324.095 395.49 324.095C395.49 324.095 395.918 324.095 396.619 324.177L393.934 331.669C393.934 331.669 404.664 339.89 411.192 337.643C411.899 337.412 412.641 337.309 413.384 337.336C414.672 337.336 417.429 336.317 415.894 334.974C412.931 332.245 410.136 329.339 407.525 326.271C407.735 326.374 407.937 326.493 408.128 326.627V326.567L408.221 326.627C408.221 326.627 408.221 326.326 408.293 325.832L408.199 325.799C408.397 323.783 409.021 318.675 410.26 318.083C411.811 317.305 423.271 294.588 423.271 294.588L434.725 265.075C434.725 265.075 443.85 280.805 451.616 283.517V290.094C451.616 290.094 455.885 309.511 457.442 311.643C458.998 313.775 457.442 322.319 457.442 322.319C457.749 322.671 458.101 322.98 458.488 323.24L457.244 330.277C457.244 330.277 466.178 329.888 481.32 334.546C481.309 334.574 487.135 332.053 482.279 328.945ZM446.557 227.402L444.667 227.874L444.294 227.967C444.256 227.731 444.228 227.594 444.228 227.594C443.794 227.79 443.328 227.903 442.853 227.929C442.182 225.806 441.795 223.604 441.702 221.379C441.066 218.717 440.678 216.002 440.545 213.268C440.545 211.854 440.781 210.621 441.313 209.925L441.943 209.974L442.381 210.391L442.414 210.418L442.639 210.621L442.875 210.829L442.913 210.862L443.165 211.087L443.209 211.125L443.466 211.345L443.757 211.586L443.823 211.641L444.13 211.887L444.431 212.128L444.502 212.183L444.837 212.435L444.908 212.485L445.226 212.72L445.28 212.759L445.642 213.016L445.73 213.076L446.113 213.34H446.146L446.519 213.586L446.607 213.646L447.007 213.904L447.094 213.959L447.467 214.189L447.538 214.233L447.966 214.485L448.07 214.545L448.514 214.792H448.547L448.98 215.022L449.084 215.077L449.544 215.307L449.637 215.351L450.065 215.548L450.147 215.587L450.629 215.795L450.745 215.844L451.243 216.047C448.147 219.456 446.557 227.402 446.557 227.402Z" fill="url(#paint0_linear_1002_1179)"/>
<path d="M398.669 319.563L395.068 329.608C395.068 329.608 404.933 337.171 411.345 335.604C412.312 335.364 413.296 335.204 414.288 335.127C415.615 335.029 417.9 334.059 416.481 332.831C411.932 328.852 405.865 321.459 405.865 321.459L398.669 319.563Z" fill="#4F4D59"/>
<path d="M458.565 318.615L456.861 328.282C456.861 328.282 465.58 327.904 480.367 332.453C480.367 332.453 486.055 329.987 481.315 326.972C481.315 326.972 475.834 327.351 472.409 321.492C468.984 315.633 466.929 316.373 466.929 316.373L458.565 318.615Z" fill="#4F4D59"/>
<path d="M413.439 248.486L415.083 277.905C415.263 281.04 414.224 284.123 412.184 286.51C411.262 287.606 410.211 288.586 409.054 289.431C405.076 292.275 396.542 322.221 396.542 322.221C396.542 322.221 406.21 322.769 408.863 324.687C408.863 324.687 409.411 317.107 410.945 316.346C412.48 315.584 423.644 293.41 423.644 293.41L434.829 264.599C434.829 264.599 443.735 279.944 451.32 282.608V289.053C451.32 289.053 455.491 308.01 457.009 310.092C458.527 312.175 457.009 320.505 457.009 320.505C457.009 320.505 461.393 325.986 471.412 320.127C471.412 320.127 468.189 316.526 468.381 312.164C468.573 307.801 463.997 283.923 463.997 283.923C463.997 283.923 464.545 274.825 460.018 269.126C455.491 263.426 447.966 241.652 447.966 241.652L442.749 230.428L413.439 248.486Z" fill="#C48C96"/>
<g opacity="0.1">
<path d="M398.384 322.215C398.384 322.215 406.912 292.27 410.896 289.425C412.118 288.53 413.223 287.484 414.184 286.312C416.13 283.958 417.109 280.954 416.925 277.905L415.253 248.481L443.204 231.25L442.826 230.433L413.549 248.486L415.22 277.911C415.404 280.959 414.425 283.964 412.48 286.318C411.519 287.489 410.414 288.535 409.192 289.431C405.218 292.27 396.68 322.215 396.68 322.215C396.68 322.215 406.347 322.763 409 324.681C409 324.681 409 324.386 409.071 323.909C405.339 322.626 398.384 322.215 398.384 322.215Z" fill="#111111"/>
<path d="M458.85 320.511C458.85 320.511 460.369 312.169 458.85 310.098C457.332 308.026 453.162 289.058 453.162 289.058V282.602C445.582 279.95 436.671 264.593 436.671 264.593L436.013 266.314C438.584 270.392 445.44 280.509 451.463 282.613V289.058C451.463 289.058 455.633 308.015 457.151 310.098C458.67 312.18 457.151 320.511 457.151 320.511C457.151 320.511 459.267 323.174 463.936 322.813C460.445 322.522 458.85 320.511 458.85 320.511Z" fill="#111111"/>
</g>
<path d="M478.657 215.504L474.936 215.751L472.974 215.882V211.142L475.549 210.676L477.144 210.386C477.144 210.386 482.077 195.791 486.812 198.444C491.547 201.096 478.657 215.504 478.657 215.504Z" fill="#714B4F"/>
<path d="M418.952 176.434C418.952 176.434 416.486 185.91 415.73 191.779C414.973 197.649 433.355 192.919 433.355 192.919C433.355 192.919 426.34 184.392 430.324 179.843L418.952 176.434Z" fill="#714B4F"/>
<path d="M438.852 215.893L439.23 219.494L433.355 219.116L427.48 213.997L421.605 197.501L417.823 191.62L414.979 188.02L416.119 183.635C416.119 183.635 416.64 184.09 417.516 184.759C420.405 186.951 427.173 191.56 432.122 190.289C432.351 190.231 432.576 190.16 432.796 190.075L440.189 202.773L438.852 215.893Z" fill="#E6E6F0"/>
<path opacity="0.1" d="M417.626 182.523C417.626 182.523 414.595 183.071 412.507 187.641C410.907 191.138 405.492 194.766 403.075 196.229C402.614 196.511 402.214 196.882 401.899 197.321C401.583 197.759 401.359 198.257 401.239 198.783C400.751 200.943 400.565 204.971 403.218 210.764C407.388 219.861 410.419 223.84 410.419 223.84C410.419 223.84 411.175 232.938 410.041 235.59C408.906 238.243 410.041 252.838 410.041 252.838C410.041 252.838 429.941 256.63 436.577 252.838C443.214 249.045 442.266 234.45 442.266 234.45C442.266 234.45 448.519 247.719 450.794 248.097L449.468 240.704C449.468 240.704 442.074 232.741 441.696 222.508C441.696 222.508 439.422 213.219 441.318 210.758C441.318 210.758 473.352 213.411 475.248 211.136C475.248 211.136 454.208 210.188 450.986 205.069C450.986 205.069 441.696 197.676 441.318 192.749C441.263 191.824 440.973 190.929 440.475 190.147C439.977 189.366 439.289 188.724 438.474 188.283C437.184 187.549 435.705 187.219 434.226 187.335L429.946 187.631C429.946 187.631 437.339 200.707 436.961 202.428C436.583 204.149 437.339 217.971 437.339 217.971C437.339 217.971 428.784 199.583 425.019 197.501C421.254 195.418 416.864 186.847 416.864 186.847L417.62 182.517" fill="#111111"/>
<path opacity="0.1" d="M438.852 215.893L439.23 219.494L433.355 219.116L427.48 213.997L421.605 197.501L417.823 191.62L414.979 188.02L416.119 183.635C416.119 183.635 416.64 184.09 417.516 184.759L417.253 186.255C417.253 186.255 421.638 194.815 425.403 196.904C429.168 198.992 437.723 217.373 437.723 217.373C437.723 217.373 436.967 203.535 437.345 201.831C437.603 200.674 434.281 194.284 432.122 190.289C432.351 190.231 432.576 190.16 432.796 190.075L440.189 202.773L438.852 215.893Z" fill="#111111"/>
<path opacity="0.1" d="M474.936 215.751L472.974 215.883V211.142L475.549 210.676C474.651 211.865 474.684 213.97 474.936 215.751Z" fill="#111111"/>
<path d="M417.626 181.958C417.626 181.958 414.595 182.506 412.507 187.077C410.907 190.574 405.492 194.202 403.075 195.665C402.614 195.946 402.214 196.317 401.899 196.756C401.583 197.195 401.359 197.692 401.239 198.219C400.751 200.378 400.565 204.406 403.218 210.199C407.388 219.297 410.419 223.276 410.419 223.276C410.419 223.276 411.175 232.373 410.041 235.026C408.906 237.678 410.041 252.273 410.041 252.273C410.041 252.273 429.941 256.066 436.577 252.273C443.214 248.481 442.266 233.886 442.266 233.886C442.266 233.886 448.514 247.132 450.794 247.538L449.468 240.145C449.468 240.145 442.074 232.182 441.696 221.949C441.696 221.949 439.422 212.66 441.318 210.199C441.318 210.199 448.711 218.162 457.053 217.971C463.131 217.934 469.206 218.251 475.248 218.919C475.248 218.919 473.352 212.852 475.248 210.577C475.248 210.577 454.208 209.629 450.986 204.51C450.986 204.51 441.696 197.117 441.318 192.19C441.263 191.265 440.973 190.37 440.475 189.588C439.977 188.807 439.289 188.165 438.474 187.724C437.184 186.99 435.705 186.66 434.226 186.776L429.946 187.072C429.946 187.072 437.339 200.148 436.961 201.869C436.583 203.59 437.339 217.412 437.339 217.412C437.339 217.412 428.784 199.014 425.019 196.931C421.254 194.848 416.864 186.299 416.864 186.299L417.62 181.969" fill="#C48C96"/>
<path opacity="0.1" d="M413.439 201.858C413.439 201.858 417.988 217.203 420.64 219.105C423.293 221.007 439.406 230.669 444.146 228.394C444.146 228.394 445.286 234.083 443.598 235.41C443.598 235.41 425.924 234.719 425.781 234.653C425.781 234.653 414.217 233.135 412.321 227.452C410.425 221.769 408.15 212.106 408.15 212.106L413.439 201.858Z" fill="#111111"/>
<path d="M437.717 219.204C438.084 219.204 438.381 218.779 438.381 218.256C438.381 217.732 438.084 217.307 437.717 217.307C437.351 217.307 437.054 217.732 437.054 218.256C437.054 218.779 437.351 219.204 437.717 219.204Z" fill="#BA7855"/>
<path d="M439.608 225.835C439.975 225.835 440.272 225.411 440.272 224.887C440.272 224.363 439.975 223.939 439.608 223.939C439.242 223.939 438.945 224.363 438.945 224.887C438.945 225.411 439.242 225.835 439.608 225.835Z" fill="#BA7855"/>
<g opacity="0.1">
<path d="M411.373 252.065C411.373 252.065 410.233 237.47 411.373 234.818C412.513 232.165 411.751 223.067 411.751 223.067C411.751 223.067 408.72 219.089 404.549 209.991C401.891 204.198 402.083 200.17 402.571 198.011C402.691 197.484 402.915 196.987 403.23 196.548C403.546 196.109 403.946 195.738 404.407 195.457C406.824 193.977 412.233 190.365 413.839 186.869C415.017 184.304 416.491 183.005 417.555 182.358L417.626 181.942C417.626 181.942 414.595 182.49 412.507 187.061C410.907 190.557 405.492 194.185 403.075 195.649C402.614 195.93 402.214 196.301 401.899 196.74C401.583 197.178 401.359 197.676 401.239 198.202C400.751 200.362 400.565 204.39 403.218 210.183C407.388 219.28 410.419 223.259 410.419 223.259C410.419 223.259 411.175 232.357 410.041 235.009C408.906 237.662 410.041 252.257 410.041 252.257C410.041 252.257 424.257 254.964 432.664 253.512C424.175 254.526 411.373 252.065 411.373 252.065Z" fill="#111111"/>
<path d="M436.955 201.858C436.698 203.025 436.955 209.892 437.169 214.101C438.084 215.97 438.66 217.214 438.66 217.214C438.66 217.214 437.904 203.376 438.282 201.672C438.643 200.027 431.985 188.157 431.322 186.984L429.94 187.077C429.94 187.077 437.339 200.153 436.955 201.858Z" fill="#111111"/>
<path d="M458.379 217.779C450.037 217.971 442.644 210.007 442.644 210.007C442.423 210.316 442.261 210.664 442.167 211.032C444.36 213.071 450.388 218.119 457.053 217.965C463.131 217.929 469.206 218.245 475.248 218.913C475.248 218.913 475.209 218.787 475.149 218.573C469.578 217.998 463.979 217.732 458.379 217.779Z" fill="#111111"/>
<path d="M443.582 233.7C443.582 233.7 443.658 234.883 443.614 236.659C445.587 240.572 449.177 247.264 450.783 247.532L450.503 245.976C447.747 242.512 443.582 233.7 443.582 233.7Z" fill="#111111"/>
</g>
<path d="M448.898 231.787L444.87 232.636L441.691 233.305L443.395 228.564L444.585 228.268L446.432 227.808C446.432 227.808 449.084 214.54 454.395 215.488C459.705 216.436 448.898 231.787 448.898 231.787Z" fill="#714B4F"/>
<path opacity="0.1" d="M444.875 232.653L441.696 233.321L443.401 228.581L444.59 228.285C444.854 229.725 444.949 231.191 444.875 232.653Z" fill="#111111"/>
<path d="M413.439 201.48C413.439 201.48 417.988 216.825 420.64 218.727C423.293 220.629 439.406 230.291 444.146 228.016C444.146 228.016 445.286 233.705 443.598 235.031C443.598 235.031 425.924 234.341 425.781 234.275C425.781 234.275 414.217 232.757 412.321 227.074C410.425 221.39 408.15 211.728 408.15 211.728L413.439 201.48Z" fill="#C48C96"/>
<path opacity="0.1" d="M419.139 176.839C419.139 176.839 418.755 178.325 418.24 180.484C419.289 182.472 420.964 184.059 423.006 185C425.047 185.941 427.342 186.184 429.535 185.69C429.08 183.745 429.179 181.777 430.511 180.254L419.139 176.839Z" fill="#111111"/>
<path d="M427.102 185.559C432.756 185.559 437.339 180.975 437.339 175.321C437.339 169.667 432.756 165.084 427.102 165.084C421.448 165.084 416.864 169.667 416.864 175.321C416.864 180.975 421.448 185.559 427.102 185.559Z" fill="#714B4F"/>
<path opacity="0.1" d="M435.991 172.504C436.733 172.711 437.509 172.76 438.271 172.647C439.06 172.433 439.757 171.968 440.258 171.323C440.758 170.677 441.034 169.885 441.044 169.068C441.03 168.251 440.833 167.447 440.468 166.716C440.102 165.985 439.579 165.345 438.934 164.843C438.068 164.119 437.032 163.609 436.238 162.804C435.3 161.845 434.785 160.562 434.045 159.433C432.827 157.566 431.019 156.16 428.91 155.438C427.343 154.89 425.419 154.846 424.213 155.986C423.594 156.572 423.232 157.411 422.542 157.91C421.539 158.622 420.18 158.414 418.958 158.556C417.85 158.725 416.801 159.163 415.903 159.832C415.005 160.501 414.284 161.38 413.806 162.393C412.871 164.458 412.692 166.786 413.302 168.969C413.537 169.901 413.888 170.8 414.14 171.71C414.688 173.639 414.798 175.661 415.412 177.563C416.025 179.465 417.292 181.328 419.21 181.898C419.058 179.763 419.48 177.627 420.432 175.71C420.589 175.291 420.898 174.947 421.298 174.746C421.639 174.658 421.997 174.658 422.339 174.746C424.743 175.101 427.195 174.605 429.272 173.343C430.001 172.904 431.135 171.392 431.908 171.244C432.905 171.074 434.95 172.274 435.991 172.504Z" fill="#111111"/>
<path d="M435.991 172.126C436.733 172.333 437.509 172.382 438.271 172.269C439.06 172.055 439.757 171.59 440.258 170.944C440.758 170.298 441.034 169.507 441.044 168.69C441.03 167.873 440.833 167.069 440.468 166.338C440.102 165.607 439.579 164.967 438.934 164.464C438.068 163.741 437.032 163.231 436.238 162.426C435.3 161.467 434.785 160.184 434.045 159.055C432.827 157.188 431.019 155.782 428.91 155.06C427.343 154.512 425.419 154.468 424.213 155.608C423.594 156.194 423.232 157.033 422.542 157.532C421.539 158.244 420.18 158.036 418.958 158.178C417.85 158.347 416.801 158.785 415.903 159.453C415.005 160.122 414.284 161.002 413.806 162.015C412.871 164.08 412.692 166.408 413.302 168.591C413.537 169.523 413.888 170.422 414.14 171.331C414.688 173.261 414.798 175.283 415.412 177.185C416.025 179.086 417.292 180.95 419.21 181.52C419.063 179.386 419.489 177.252 420.443 175.338C420.6 174.919 420.909 174.574 421.309 174.373C421.65 174.285 422.008 174.285 422.35 174.373C424.754 174.729 427.206 174.232 429.283 172.97C430.012 172.532 431.146 171.019 431.919 170.871C432.905 170.696 434.95 171.896 435.991 172.126Z" fill="#503F43"/>
<path d="M538.12 138.339L529.768 231.891L492.226 242.304L454.789 231.891L446.448 138.339H538.12Z" fill="#E44D26"/>
<path d="M492.281 234.346L522.616 225.939L529.74 145.99H492.281V234.346Z" fill="#F16529"/>
<path d="M476.048 168.942H492.281V157.466H463.509L463.783 160.546L466.605 192.168H492.287V180.692H477.1L476.048 168.942ZM478.657 197.906H467.148L468.754 215.926L492.232 222.47H492.287V210.495H492.238L479.457 207.042L478.657 197.906Z" fill="#EBEBEB"/>
<path d="M454.981 112.909H460.812V118.669H466.145V112.909H471.976V130.359H466.145V124.517H460.812V130.359H454.981V112.909ZM479.643 118.697H474.508V112.909H490.61V118.697H485.474V130.359H479.649V118.697H479.643ZM493.169 112.909H499.252L502.996 119.042L506.733 112.909H512.817V130.359H507.007V121.711L502.996 127.915H502.897L498.88 121.711V130.359H493.169V112.909ZM515.716 112.909H521.547V124.588H529.768V130.354H515.732V112.909H515.716Z" fill="#111111"/>
<path d="M492.243 192.168H506.372L505.04 207.053L492.243 210.506V222.47L515.771 215.948L515.941 214.008L518.637 183.794L518.917 180.714H492.243V192.19V192.168ZM492.243 168.915V168.942H519.964L520.194 166.361L520.742 160.54L521.016 157.46H492.243V168.909V168.915Z" fill="#111111"/>
<path d="M201.738 207.404C200.669 204.275 199.129 200.279 197.901 199.37C197.827 199.311 197.746 199.261 197.66 199.222H197.507V195.358L194.624 195.818C194.161 194.422 193.811 192.991 193.577 191.538C193.855 191.816 194.209 192.005 194.594 192.082C194.979 192.159 195.379 192.121 195.742 191.971C195.693 191.894 195.654 191.812 195.611 191.73L195.742 191.675C195.288 190.874 195.049 189.97 195.046 189.05C195.07 188.21 195.204 187.377 195.446 186.573C195.961 184.792 196.833 183.126 197.32 181.339C197.632 180.185 197.78 178.993 197.759 177.798C197.774 175.774 197.312 173.775 196.411 171.962C196.187 171.44 195.837 170.982 195.391 170.63C194.986 170.405 194.569 170.202 194.142 170.022C193.427 169.54 192.811 168.926 192.328 168.213C190.28 165.72 187.54 163.891 184.452 162.957C183.648 162.659 182.777 162.59 181.937 162.76C180.002 163.308 179.295 165.681 177.728 166.936C176.341 168.032 174.439 168.158 172.708 168.531C170.93 168.833 169.293 169.691 168.033 170.981C167.213 171.918 166.766 173.123 166.778 174.368C166.73 174.948 166.833 175.532 167.076 176.061C167.319 176.591 167.693 177.05 168.164 177.393C168.7 177.745 169.307 177.975 169.942 178.065C170.577 178.155 171.224 178.103 171.836 177.914C171.358 179.567 171.226 181.301 171.449 183.007C171.672 184.713 172.246 186.355 173.133 187.829C174.021 189.304 175.204 190.579 176.607 191.574C178.011 192.57 179.605 193.265 181.29 193.615L181.63 194.218C182.666 196.151 183.453 198.208 183.97 200.34C181.317 201.847 178.418 203.255 176.67 203.387C176.601 204.07 176.474 204.747 176.292 205.409C175.883 207.073 175.098 208.62 173.995 209.931C171.617 212.605 160.913 232.828 160.913 232.828C160.913 232.828 160.574 233.634 160.026 235.02C153.378 235.837 142.532 237.015 139.501 236.407L127.608 225.106C127.608 225.106 123.772 228.038 124.101 231.601L121.958 229.562C121.958 229.562 110.657 238.183 128.502 243.811L155.652 246.962C153.065 254.767 150.654 263.848 151.399 268.791H151.624C152.143 268.79 152.662 268.75 153.175 268.671L153.126 269.548L150.511 316.368C150.511 316.368 149.914 324.988 157.943 328.858C157.943 328.858 167.759 357.701 163.889 360.973C163.889 360.973 164.35 361.214 165.123 361.554L157.05 368.679C157.05 368.679 151.103 370.164 147.832 369.868C147.256 369.79 146.673 369.926 146.192 370.25C145.71 370.575 145.366 371.065 145.223 371.627C145.223 371.688 145.223 371.748 145.19 371.814V371.891C145.19 371.951 145.19 372.017 145.19 372.082C145.19 372.148 145.19 372.132 145.19 372.154C145.19 372.175 145.19 372.263 145.19 372.318V372.389C145.19 372.455 145.19 372.515 145.228 372.581V372.652C145.247 372.722 145.268 372.789 145.294 372.855V372.921C145.321 372.987 145.354 373.052 145.387 373.118V373.162C145.426 373.228 145.464 373.294 145.508 373.359L145.546 373.414C145.594 373.483 145.647 373.553 145.705 373.622L145.749 373.677C145.809 373.748 145.875 373.814 145.946 373.885H145.979L146.198 374.072L146.248 374.11L146.516 374.302L146.582 374.346L146.894 374.527H146.944L147.278 374.691H147.327L147.716 374.85L147.799 374.883L148.232 375.025H148.303L148.769 375.146H148.807L149.355 375.25H149.459L150.007 375.332H150.111L150.742 375.393C151.964 375.486 153.613 375.519 155.521 375.513C155.521 375.513 155.521 375.562 155.521 375.584C155.521 375.606 155.521 375.694 155.521 375.749V375.82C155.521 375.886 155.521 375.946 155.559 376.012V376.083C155.577 376.152 155.599 376.22 155.625 376.286V376.352C155.652 376.417 155.685 376.483 155.718 376.549V376.593C155.756 376.659 155.795 376.724 155.839 376.79L155.877 376.845C155.924 376.914 155.977 376.984 156.036 377.053L156.08 377.108C156.14 377.179 156.206 377.245 156.277 377.316H156.304L156.524 377.503L156.573 377.541L156.841 377.733L156.907 377.777L157.214 377.957H157.263L157.598 378.122H157.647L158.036 378.281L158.118 378.314L158.551 378.456H158.623L159.088 378.577H159.127L159.675 378.681H159.779L160.327 378.763H160.431L161.061 378.823C168.794 379.421 193.473 377.634 193.473 377.634V377.563V377.475C193.72 376.324 194.904 369.633 190.695 364.684C190.821 364.552 190.941 364.415 191.056 364.273C191.056 364.273 187.768 358.622 189.571 356.841C191.374 355.06 180.863 324.407 180.863 324.407C180.863 324.407 175.212 315.485 178.484 305.374C181.756 295.262 178.188 284.263 178.188 284.263C178.188 284.263 185.998 281.95 186.14 272.343C186.14 272.052 186.14 271.751 186.14 271.449C186.304 271.473 186.468 271.484 186.633 271.482C186.743 271.49 186.853 271.49 186.962 271.482C186.962 271.482 185.477 266.128 187.258 262.264C189.039 258.4 192.909 261.968 196.476 246.206C199.058 234.801 201.327 221.686 202.39 215.302C202.827 212.656 202.603 209.943 201.738 207.404ZM133.878 240.835L131.165 238.259C132.064 238.632 133.062 238.994 134.174 239.355L144.395 240.556C139.835 240.967 135.577 241.197 133.878 240.852V240.835Z" fill="url(#paint1_linear_1002_1179)"/>
<path d="M159.763 239.334C159.763 239.334 138.729 242.255 134.344 241.378L122.66 230.274C122.66 230.274 111.556 238.747 129.088 244.299L161.807 248.097L159.763 239.334Z" fill="#FDC2CC"/>
<path opacity="0.05" d="M159.763 239.334C159.763 239.334 138.729 242.255 134.344 241.378L122.66 230.274C122.66 230.274 111.556 238.747 129.088 244.299L161.807 248.097L159.763 239.334Z" fill="#111111"/>
<path d="M118.588 246.705L73.1324 234.1L63.0044 120.489H174.308L164.169 234.083L118.588 246.705Z" fill="#264DE4"/>
<path d="M155.488 226.854L164.153 129.784H118.665V237.043L155.488 226.854Z" fill="#2965F1"/>
<path d="M86.2528 171.901L87.5024 185.833H118.686V171.901H86.2528ZM83.7427 143.699L85.0087 157.63H118.681V143.699H83.7153H83.7427ZM118.681 208.089H118.621L103.1 203.897L102.108 192.782H88.0943L90.0453 214.66L118.588 222.602H118.654L118.681 208.089Z" fill="#EBEBEB"/>
<path d="M89.2012 89.6007H106.076V96.6596H96.2546V103.718H106.076V110.777H89.2012V89.6007ZM109.479 89.6007H126.354V95.7389H116.511V96.9665H126.332V111.084H109.452V104.639H119.273V103.412H109.452V89.6007H109.479ZM129.757 89.6007H146.631V95.7389H136.761V96.9665H146.582V111.084H129.702V104.639H139.523V103.412H129.702V89.6007H129.757Z" fill="#111111"/>
<path d="M151 171.901L153.515 143.699H118.588V157.63H138.225L136.959 171.88H118.588V185.811H135.747L134.103 203.897L118.588 208.1V222.596L147.152 214.677L147.361 212.32L150.649 175.634L150.989 171.891L151 171.901Z" fill="#111111"/>
<path d="M167.364 357.943L157.137 366.996C157.137 366.996 151.295 368.46 148.084 368.164C144.872 367.868 143.409 373.129 151.005 373.715C158.601 374.302 182.846 372.548 182.846 372.548C182.846 372.548 185.181 363.198 178.172 357.943H167.364Z" fill="#47465A"/>
<path opacity="0.05" d="M167.364 357.943L157.137 366.996C157.137 366.996 151.295 368.46 148.084 368.164C144.872 367.868 143.409 373.129 151.005 373.715C158.601 374.302 182.846 372.548 182.846 372.548C182.846 372.548 185.181 363.198 178.172 357.943H167.364Z" fill="#111111"/>
<path opacity="0.3" d="M183.208 368.509C183.191 369.574 183.068 370.636 182.841 371.677C182.841 371.677 158.595 373.431 150.999 372.844C147.344 372.565 145.793 371.2 145.519 369.896C145.184 371.397 146.511 373.376 150.999 373.732C158.595 374.318 182.841 372.565 182.841 372.565C183.127 371.233 183.25 369.871 183.208 368.509Z" fill="#111111"/>
<path d="M179.333 192.327C179.333 192.327 185.762 201.381 183.422 207.519C181.082 213.657 195.693 201.091 195.693 201.091C195.693 201.091 191.018 192.875 193.358 184.107L179.333 192.327Z" fill="#FDC2CC"/>
<path d="M177.58 361.45L167.364 370.504C167.364 370.504 161.522 371.967 158.31 371.671C155.099 371.375 153.635 376.637 161.231 377.223C168.827 377.809 193.073 376.056 193.073 376.056C193.073 376.056 195.408 366.706 188.398 361.45H177.58Z" fill="#47465A"/>
<path d="M180.518 359.406C178.994 361.286 176.846 362.009 174.599 362.119C169.491 362.36 163.868 359.406 163.868 359.406C167.666 356.194 158.026 327.855 158.026 327.855C150.139 324.057 150.72 315.584 150.72 315.584L153.274 269.602L153.921 258.05L162.103 253.084L168.548 258.017L174.664 262.708C175.063 264.2 175.32 265.727 175.432 267.268C176.144 278.004 167.655 280.531 167.655 280.531C167.655 280.531 171.162 291.338 167.945 301.274C164.728 311.21 170.28 319.974 170.28 319.974C170.28 319.974 180.797 350.358 179.049 352.111C177.3 353.865 180.518 359.406 180.518 359.406Z" fill="#565171"/>
<path opacity="0.05" d="M180.518 359.406C178.994 361.286 176.846 362.009 174.599 362.119C169.491 362.36 163.868 359.406 163.868 359.406C167.666 356.194 158.026 327.855 158.026 327.855C150.139 324.057 150.72 315.584 150.72 315.584L153.274 269.602L153.921 258.05L162.103 253.084L168.548 258.017L174.664 262.708C175.063 264.2 175.32 265.727 175.432 267.268C176.144 278.004 167.655 280.531 167.655 280.531C167.655 280.531 171.162 291.338 167.945 301.274C164.728 311.21 170.28 319.974 170.28 319.974C170.28 319.974 180.797 350.358 179.049 352.111C177.3 353.865 180.518 359.406 180.518 359.406Z" fill="#111111"/>
<path d="M190.728 362.908C185.762 369.041 174.078 362.908 174.078 362.908C174.313 362.691 174.489 362.417 174.588 362.113C176.731 356.287 167.359 328.436 167.359 328.436C159.472 324.638 158.59 315.584 158.59 315.584L156.524 268.769L156.255 262.708L168.548 258.017L172.324 256.575L184.902 266.215C185.442 268.213 185.708 270.274 185.691 272.343C185.532 281.775 177.876 284.054 177.876 284.054C177.876 284.054 181.383 294.862 178.166 304.798C174.949 314.734 180.518 323.47 180.518 323.47C180.518 323.47 191.035 353.854 189.286 355.608C187.538 357.362 190.728 362.908 190.728 362.908Z" fill="#565171"/>
<path opacity="0.1" d="M185.691 272.343C183.165 271.981 178.051 268.939 175.426 267.29C174.423 266.659 173.782 266.237 173.782 266.237C173.782 266.237 171.151 258.932 164.142 264.484C161.861 266.336 159.286 267.792 156.524 268.791C155.469 269.165 154.38 269.438 153.274 269.608L153.921 258.055L162.103 253.09L168.548 258.022L172.324 256.581L184.902 266.215C185.442 268.213 185.707 270.274 185.691 272.343Z" fill="#111111"/>
<path d="M201.502 216.283C200.461 222.552 198.214 235.464 195.693 246.639C192.185 262.121 188.387 258.614 186.639 262.412C184.891 266.21 186.349 271.466 186.349 271.466C183.428 271.756 173.787 265.333 173.787 265.333C173.787 265.333 171.157 258.028 164.147 263.579C157.138 269.131 151.586 268.835 151.586 268.835C150.123 259.195 160.936 233.486 160.936 233.486C160.936 233.486 171.453 213.619 173.787 211.016C174.871 209.729 175.643 208.21 176.045 206.577C176.225 205.927 176.349 205.263 176.418 204.593C180.216 204.302 189.571 197.874 189.571 197.874L196.877 196.706V200.504C196.963 200.543 197.044 200.593 197.118 200.652C198.318 201.567 199.858 205.47 200.883 208.544C201.722 211.033 201.935 213.691 201.502 216.283Z" fill="#E1A0A7"/>
<path d="M167.364 243.718L163.588 243.28L134.646 239.92C117.108 234.368 128.217 225.895 128.217 225.895L139.902 236.999C143.272 237.673 156.497 236.1 162.421 235.355C164.197 235.125 165.32 234.971 165.32 234.971L167.364 243.718Z" fill="#FDC2CC"/>
<path opacity="0.1" d="M195.693 204.28C195.693 204.28 188.097 198.148 176.681 218.009C165.265 237.87 162.656 234.659 162.656 234.659C162.656 234.659 164.991 243.428 163.824 245.176C163.824 245.176 171.71 244.589 174.631 245.176C177.552 245.762 195.665 222.974 195.665 222.974C195.665 222.974 205.042 210.123 195.693 204.28Z" fill="#111111"/>
<path opacity="0.1" d="M195.403 203.113C195.403 203.113 187.807 196.98 176.413 216.842C165.019 236.703 162.388 233.491 162.388 233.491C162.388 233.491 171.442 243.422 174.363 244.008C177.284 244.595 195.397 221.807 195.397 221.807C195.397 221.807 204.752 208.955 195.403 203.113Z" fill="#111111"/>
<path opacity="0.1" d="M163.583 243.296C163.703 241.131 162.887 237.328 162.416 235.355C164.191 235.125 165.315 234.971 165.315 234.971L167.359 243.74L163.583 243.296Z" fill="#111111"/>
<path d="M195.693 203.694C195.693 203.694 188.097 197.561 176.681 217.428C165.265 237.295 162.656 234.078 162.656 234.078C162.656 234.078 164.991 242.847 163.824 244.595C163.824 244.595 171.71 244.008 174.631 244.595C177.552 245.181 195.665 222.393 195.665 222.393C195.665 222.393 205.042 209.536 195.693 203.694Z" fill="#E1A0A7"/>
<path opacity="0.1" d="M193.671 184.704L179.624 192.875C180.218 193.738 180.767 194.63 181.268 195.55C182.076 195.714 182.899 195.797 183.723 195.796C187.467 195.796 189.204 191.867 191.467 189.22C191.303 187.115 193.024 187.061 193.671 184.704Z" fill="#111111"/>
<path d="M183.422 195.227C190.199 195.227 195.693 189.733 195.693 182.956C195.693 176.179 190.199 170.685 183.422 170.685C176.645 170.685 171.151 176.179 171.151 182.956C171.151 189.733 176.645 195.227 183.422 195.227Z" fill="#FDC2CC"/>
<path opacity="0.1" d="M167.912 173.03C169.15 171.761 170.758 170.917 172.505 170.619C174.209 170.252 176.078 170.142 177.437 169.052C178.978 167.818 179.668 165.473 181.57 164.947C182.396 164.781 183.252 164.85 184.041 165.144C187.075 166.061 189.768 167.858 191.78 170.307C192.256 171.009 192.862 171.614 193.567 172.088C193.986 172.265 194.396 172.465 194.794 172.685C195.231 173.032 195.573 173.482 195.792 173.995C197.161 176.761 197.476 179.93 196.68 182.912C196.203 184.671 195.348 186.304 194.838 188.058C194.328 189.812 194.202 191.796 195.129 193.363C194.23 193.823 193.095 193.243 192.531 192.404C191.966 191.565 191.796 190.535 191.5 189.565C190.918 187.661 189.822 185.954 188.333 184.633C187.412 183.822 185.768 183.273 185.127 184.32C184.88 184.726 184.896 185.246 184.683 185.668C184.266 186.496 183.039 186.66 182.255 186.217C181.483 185.684 180.941 184.879 180.737 183.964C179.537 179.892 177.481 177.333 173.13 179.07C171.486 179.717 169.595 180.166 168.033 179.07C166.033 177.601 166.433 174.691 167.912 173.03Z" fill="#111111"/>
<path d="M167.912 172.735C169.15 171.465 170.758 170.621 172.505 170.323C174.209 169.956 176.078 169.846 177.437 168.756C178.978 167.523 179.668 165.177 181.57 164.651C182.396 164.486 183.252 164.554 184.041 164.848C187.075 165.765 189.768 167.562 191.78 170.011C192.256 170.713 192.862 171.318 193.567 171.792C193.986 171.969 194.396 172.169 194.794 172.389C195.231 172.736 195.573 173.186 195.792 173.699C197.161 176.465 197.476 179.634 196.68 182.616C196.203 184.375 195.348 186.008 194.838 187.762C194.328 189.516 194.202 191.5 195.129 193.067C194.23 193.528 193.095 192.947 192.531 192.108C191.966 191.27 191.796 190.239 191.5 189.269C190.918 187.365 189.822 185.658 188.333 184.337C187.412 183.526 185.768 182.978 185.127 184.024C184.88 184.43 184.896 184.951 184.683 185.373C184.266 186.2 183.039 186.365 182.255 185.921C181.483 185.388 180.941 184.583 180.737 183.668C179.537 179.596 177.481 177.037 173.13 178.774C171.486 179.421 169.595 179.87 168.033 178.774C166.033 177.311 166.433 174.401 167.912 172.735Z" fill="#8F5A6A"/>
<path opacity="0.05" d="M197.102 200.63H191.166C191.166 200.63 179.482 206.472 179.191 206.182C178.994 205.985 177.185 206.324 176.04 206.56C176.219 205.91 176.344 205.247 176.413 204.576C180.211 204.286 189.566 197.857 189.566 197.857L196.871 196.69V200.488C196.954 200.526 197.031 200.573 197.102 200.63Z" fill="#111111"/>
<path opacity="0.3" d="M193.429 372.011C193.412 373.077 193.289 374.138 193.062 375.179C193.062 375.179 168.816 376.933 161.22 376.346C157.565 376.067 156.014 374.702 155.74 373.398C155.406 374.899 156.732 376.878 161.22 377.234C168.816 377.82 193.062 376.067 193.062 376.067C193.348 374.735 193.471 373.373 193.429 372.011Z" fill="#111111"/>
<g opacity="0.05">
<path d="M161.369 263.289C157.428 266.413 153.943 267.673 151.652 268.221C151.652 268.44 151.696 268.654 151.729 268.863C151.729 268.863 157.28 269.153 164.29 263.607C165.376 262.676 166.66 262.005 168.044 261.645C166.515 260.894 164.334 260.943 161.369 263.289Z" fill="#111111"/>
<path d="M201.015 208.517C199.968 205.442 198.45 201.546 197.25 200.625C197.176 200.565 197.095 200.516 197.009 200.477C197.009 200.477 194.592 200.559 194.674 200.625C195.874 201.54 197.047 205.152 198.094 208.221C198.942 210.716 199.16 213.381 198.729 215.981C197.688 222.251 195.441 235.163 192.92 246.338C189.413 261.82 185.615 258.313 183.866 262.111C182.43 265.223 183.148 269.312 183.461 270.688C184.406 271.16 185.441 271.424 186.497 271.46C186.497 271.46 185.034 266.204 186.787 262.406C188.541 258.609 192.339 262.116 195.841 246.634C198.379 235.431 200.609 222.519 201.651 216.277C202.081 213.677 201.863 211.012 201.015 208.517Z" fill="#111111"/>
</g>
<path d="M234.966 263.086C235.971 262.267 236.703 261.163 237.065 259.918C237.34 258.658 236.802 257.151 235.597 256.69C234.249 256.175 232.807 257.107 231.717 258.055C230.626 259.003 229.371 260.077 227.94 259.875C228.676 259.208 229.226 258.363 229.537 257.42C229.848 256.478 229.91 255.471 229.716 254.498C229.654 254.095 229.484 253.716 229.223 253.402C228.472 252.602 227.118 252.947 226.22 253.577C223.37 255.583 222.575 259.453 222.559 262.938C222.274 261.683 222.515 260.373 222.504 259.102C222.493 257.83 222.142 256.362 221.057 255.693C220.384 255.331 219.628 255.152 218.865 255.172C217.582 255.123 216.157 255.254 215.28 256.192C214.184 257.353 214.475 259.31 215.423 260.576C216.371 261.842 217.807 262.659 219.133 263.546C220.196 264.178 221.103 265.042 221.786 266.073C221.866 266.216 221.932 266.366 221.983 266.522H230.012C231.811 265.606 233.478 264.45 234.966 263.086Z" fill="#9D4EDD"/>
<path d="M249.714 365.994C250.991 364.804 252.192 363.401 252.564 361.697C252.937 359.992 252.208 357.943 250.575 357.312C248.75 356.611 246.793 357.86 245.314 359.159C243.834 360.458 242.135 361.9 240.2 361.626C241.197 360.722 241.942 359.575 242.364 358.298C242.785 357.021 242.869 355.656 242.606 354.336C242.521 353.792 242.29 353.28 241.938 352.857C240.924 351.761 239.082 352.237 237.871 353.092C234.035 355.833 232.939 361.056 232.911 365.78C232.522 364.075 232.851 362.3 232.84 360.551C232.829 358.803 232.352 356.868 230.878 355.926C229.96 355.432 228.927 355.19 227.886 355.224C226.148 355.159 224.214 355.334 223.03 356.605C221.556 358.184 221.934 360.831 223.222 362.568C224.51 364.306 226.455 365.396 228.247 366.596C229.686 367.454 230.913 368.625 231.837 370.022C231.947 370.217 232.037 370.423 232.106 370.635H242.995C245.434 369.398 247.694 367.837 249.714 365.994Z" fill="#9D4EDD"/>
</g>
<defs>
<linearGradient id="paint0_linear_1002_1179" x1="441.461" y1="338.026" x2="441.461" y2="152.484" gradientUnits="userSpaceOnUse">
<stop stop-color="#808080" stop-opacity="0.25"/>
<stop offset="0.54" stop-color="#808080" stop-opacity="0.12"/>
<stop offset="1" stop-color="#808080" stop-opacity="0.1"/>
</linearGradient>
<linearGradient id="paint1_linear_1002_1179" x1="160.53" y1="379.245" x2="160.53" y2="162.65" gradientUnits="userSpaceOnUse">
<stop stop-color="#808080" stop-opacity="0.25"/>
<stop offset="0.54" stop-color="#808080" stop-opacity="0.12"/>
<stop offset="1" stop-color="#808080" stop-opacity="0.1"/>
</linearGradient>
<clipPath id="clip0_1002_1179">
<rect width="564.497" height="400" fill="white" transform="translate(0.751465)"/>
</clipPath>
</defs>
</svg>
