<svg width="12" height="13" viewBox="0 0 12 13" fill="none" xmlns="http://www.w3.org/2000/svg">
<path d="M10.8154 8.25391L6.44043 12.6289C6.27637 12.793 6.05762 12.875 5.83887 12.875C5.59277 12.875 5.37402 12.793 5.20996 12.6289L0.834961 8.25391C0.479492 7.92578 0.479492 7.35156 0.834961 7.02344C1.16309 6.66797 1.7373 6.66797 2.06543 7.02344L4.96387 9.89453V1.5C4.96387 1.03516 5.34668 0.652344 5.81152 0.652344C6.24902 0.652344 6.71387 1.03516 6.71387 1.5V9.89453L9.58496 7.02344C9.91309 6.66797 10.4873 6.66797 10.8154 7.02344C11.1709 7.35156 11.1709 7.92578 10.8154 8.25391Z" fill="url(#paint0_linear_1077_608)"/>
<defs>
<linearGradient id="paint0_linear_1077_608" x1="0.338867" y1="0" x2="12.9999" y2="1.71142" gradientUnits="userSpaceOnUse">
<stop stop-color="#0466C8"/>
<stop offset="1" stop-color="#9D4EDD"/>
</linearGradient>
</defs>
</svg>
