<svg width="25" height="25" viewBox="0 0 25 25" fill="none" xmlns="http://www.w3.org/2000/svg">
<path d="M1.5625 4.6875C1.5625 3.82324 2.26074 3.125 3.125 3.125H21.875C22.7393 3.125 23.4375 3.82324 23.4375 4.6875C23.4375 5.55176 22.7393 6.25 21.875 6.25H3.125C2.26074 6.25 1.5625 5.55176 1.5625 4.6875ZM8.56934 12.5C8.56934 11.6357 9.26758 10.9375 10.1318 10.9375H21.875C22.7393 10.9375 23.4375 11.6357 23.4375 12.5C23.4375 13.3643 22.7393 14.0625 21.875 14.0625H10.1318C9.26758 14.0625 8.56934 13.3643 8.56934 12.5ZM23.4375 20.3125C23.4375 21.1768 22.7393 21.875 21.875 21.875H7.00684C6.14258 21.875 5.44434 21.1768 5.44434 20.3125C5.44434 19.4482 6.14258 18.75 7.00684 18.75H21.875C22.7393 18.75 23.4375 19.4482 23.4375 20.3125Z" fill="url(#paint0_linear_601_4)"/>
<defs>
<linearGradient id="paint0_linear_601_4" x1="1.5625" y1="3.125" x2="26.208" y2="8.07157" gradientUnits="userSpaceOnUse">
<stop stop-color="#0466C8"/>
<stop offset="1" stop-color="#9D4EDD"/>
</linearGradient>
</defs>
</svg>
