<svg width="50" height="50" viewBox="0 0 50 50" fill="none" xmlns="http://www.w3.org/2000/svg">
<path d="M19.0668 25.5686C20.1373 24.0634 20.639 22.3908 20.639 20.5176C20.639 18.0757 19.7693 16.0018 18.0299 14.2289C16.2904 12.4895 14.183 11.6198 11.7412 11.6198H0L2.30809 15.6004L2.80985 16.1021H11.7412C12.9454 16.1021 13.9823 16.537 14.8521 17.4067C15.7552 18.2764 16.1901 19.3134 16.1901 20.5176C16.1901 21.7553 15.7552 22.8257 14.8521 23.6954C13.9823 24.5651 12.9454 25 11.7412 25L7.76054 24.9665L15.5211 38.3802H20.639L15.1531 28.7799C16.7253 28.1443 18.0299 27.0739 19.0668 25.5686Z" fill="url(#paint0_linear_455_3)"/>
<path d="M42.5405 33.1285C41.4032 33.6302 40.1655 33.8978 38.8275 33.8978C36.3856 33.8978 34.2448 33.0616 32.5053 31.3221C30.7659 29.5827 29.9296 27.4419 29.9296 25C29.9296 22.5581 30.7659 20.4507 32.5053 18.7113C34.2782 16.9384 36.3856 16.1021 38.8275 16.1021C41.3028 16.1021 43.3768 16.9718 45.1162 18.7113L48.3275 15.5669C47.0898 14.3292 45.6514 13.3592 44.0458 12.6567C42.4067 11.9543 40.6673 11.6198 38.8275 11.6198C35.1145 11.6198 31.9701 12.9243 29.3944 15.5669C26.7518 18.1761 25.4473 21.3204 25.4473 25C25.4473 28.713 26.7853 31.8239 29.3944 34.433C32.0036 37.0422 35.1145 38.3802 38.8275 38.3802C39.9983 38.3802 41.1021 38.2464 42.1726 37.9454C43.2764 37.6778 44.28 37.2763 45.2166 36.7411C46.1866 36.2059 47.0563 35.5704 47.8592 34.8345C48.6954 34.0985 49.3979 33.2623 50 32.3591L45.5511 30.8873C44.6814 31.8574 43.6778 32.5933 42.5405 33.1285ZM38.8275 27.2412H45.5511L50 22.7922H38.8275V27.2412Z" fill="url(#paint1_linear_455_3)"/>
<defs>
<linearGradient id="paint0_linear_455_3" x1="0" y1="11.6198" x2="53.114" y2="28.6926" gradientUnits="userSpaceOnUse">
<stop stop-color="#0466C8"/>
<stop offset="1" stop-color="#9D4EDD"/>
</linearGradient>
<linearGradient id="paint1_linear_455_3" x1="0" y1="11.6198" x2="53.114" y2="28.6926" gradientUnits="userSpaceOnUse">
<stop stop-color="#0466C8"/>
<stop offset="1" stop-color="#9D4EDD"/>
</linearGradient>
</defs>
</svg>
