<svg width="100" height="100" viewBox="0 0 100 100" fill="none" xmlns="http://www.w3.org/2000/svg">
<path d="M39.1467 50.688C41.1947 47.808 42.1547 44.608 42.1547 41.024C42.1547 36.352 40.4907 32.384 37.1627 28.992C33.8347 25.664 29.8027 24 25.1307 24H2.66667L7.08267 31.616L8.04267 32.576H25.1307C27.4347 32.576 29.4187 33.408 31.0827 35.072C32.8107 36.736 33.6427 38.72 33.6427 41.024C33.6427 43.392 32.8107 45.44 31.0827 47.104C29.4187 48.768 27.4347 49.6 25.1307 49.6L17.5147 49.536L32.3627 75.2H42.1547L31.6587 56.832C34.6667 55.616 37.1627 53.568 39.1467 50.688Z" fill="white"/>
<path d="M84.0582 65.152C81.8822 66.112 79.5142 66.624 76.9542 66.624C72.2822 66.624 68.1862 65.024 64.8582 61.696C61.5302 58.368 59.9302 54.272 59.9302 49.6C59.9302 44.928 61.5302 40.896 64.8582 37.568C68.2502 34.176 72.2822 32.576 76.9542 32.576C81.6902 32.576 85.6582 34.24 88.9862 37.568L95.1302 31.552C92.7622 29.184 90.0102 27.328 86.9382 25.984C83.8022 24.64 80.4742 24 76.9542 24C69.8502 24 63.8342 26.496 58.9062 31.552C53.8502 36.544 51.3542 42.56 51.3542 49.6C51.3542 56.704 53.9142 62.656 58.9062 67.648C63.8982 72.64 69.8502 75.2 76.9542 75.2C79.1942 75.2 81.3062 74.944 83.3542 74.368C85.4662 73.856 87.3862 73.088 89.1782 72.064C91.0342 71.04 92.6982 69.824 94.2342 68.416C95.8342 67.008 97.1782 65.408 98.3302 63.68L89.8182 60.864C88.1542 62.72 86.2342 64.128 84.0582 65.152ZM76.9542 53.888H89.8182L98.3302 45.376H76.9542V53.888Z" fill="white"/>
</svg>
